PathFileType	4	(x/y/z)	S08_PSF_T05
DataRate	CameraRate	NumFrames	NumMarkers	Units	OrigDataRate	OrigDataStartFrame	OrigNumFrames
240	240	7	51	mm	240	366	418
Frame#	Time	Sternum			R.Acromium			L.Acromium			Top.Head			R.ASIS			L.ASIS			R.PSIS			L.PSIS			R.Great.Tro			L.Great.Tro			R.Iliac.Crest			L.Iliac.Crest			V.Sacral			R.Thigh.Upper.Post			R.Thigh.Lower.Ant			R.Thigh.Lower.Post			R.Thigh.Upper.Ant			R.Knee.Lat			R.Knee.Med			R.Shank.Upper.Post			R.Shank.Lower.Ant			R.Shank.Lower.Post			R.Shank.Upper.Ant			R.Ankle.Lat			R.Ankle.Med			R.Heel.Upper			R.Heel.Med			R.Heel.Lat			R.Toe.Lat			R.Toe.Med			R.Toe.Tip			L.Thigh.Upper.Post			L.Thigh.Lower.Ant			L.Thigh.Lower.Post			L.Thigh.Upper.Ant			L.Knee.Lat			L.Knee.Med			L.Shank.Upper.Post			L.Shank.Lower.Ant			L.Shank.Lower.Post			L.Shank.Upper.Ant			L.Ankle.Lat			L.Ankle.Med			L.Heel.Upper			L.Heel.Med			L.Heel.Lat			L.Toe.Lat			L.Toe.Med			L.Toe.Tip			Cervical.Spine			Back			
		X1	Y1	Z1	X2	Y2	Z2	X3	Y3	Z3	X4	Y4	Z4	X5	Y5	Z5	X6	Y6	Z6	X7	Y7	Z7	X8	Y8	Z8	X9	Y9	Z9	X10	Y10	Z10	X11	Y11	Z11	X12	Y12	Z12	X13	Y13	Z13	X14	Y14	Z14	X15	Y15	Z15	X16	Y16	Z16	X17	Y17	Z17	X18	Y18	Z18	X19	Y19	Z19	X20	Y20	Z20	X21	Y21	Z21	X22	Y22	Z22	X23	Y23	Z23	X24	Y24	Z24	X25	Y25	Z25	X26	Y26	Z26	X27	Y27	Z27	X28	Y28	Z28	X29	Y29	Z29	X30	Y30	Z30	X31	Y31	Z31	X32	Y32	Z32	X33	Y33	Z33	X34	Y34	Z34	X35	Y35	Z35	X36	Y36	Z36	X37	Y37	Z37	X38	Y38	Z38	X39	Y39	Z39	X40	Y40	Z40	X41	Y41	Z41	X42	Y42	Z42	X43	Y43	Z43	X44	Y44	Z44	X45	Y45	Z45	X46	Y46	Z46	X47	Y47	Z47	X48	Y48	Z48	X49	Y49	Z49	X50	Y50	Z50	X51	Y51	Z51	

366	1.5208	622.4	1216.8	292.93	515.57	1456.2	469.75	501.46	1489.6	136.51	526.23	1776.2	318.73	605.24	1010.8	399.84	596.56	1013.8	167.13	401.16	1028.8	335.62	402.1	1035.9	242.44	551.85	903.19	473.94	496.09	908.14	105.5	507.93	1074.6	451.94	500.68	1094	143.47	386.05	991.9	286.36	605.15	706.61	466.44	710.5	641.85	431.52	641.89	625.59	447.23	678.39	729.84	450.1	718.59	543.98	426.68	686.88	531.18	302.11	710.72	352.36	440.99	787.66	310.21	419.77	733.07	278.41	435.17	765.45	384.53	426.85	785.48	113.67	402.92	809.54	139.66	324.39	755.15	62.646	353.6	776.82	42.915	326.7	768.33	41.428	388.17	NaN	NaN	NaN	947.18	111.96	321.22	999.3	152.64	367.63	450.83	715.63	119.33	514.94	611.36	152.29	448.72	624.43	142.85	518.6	697.18	125.9	440.31	515.75	168.92	439.58	519.66	294.19	341.23	348.65	172.76	389.28	251.32	201.29	323.22	278.71	192.01	401.46	324.74	182.29	310.83	104.73	217.59	332.05	108.65	302.91	252.9	78.675	265.58	265.06	42.718	295.15	260.08	52.334	231.18	436.44	38.99	196.5	454.51	37.817	312.83	519.65	52.981	264.26	444.14	1516.9	297.79	391.07	1235.6	304.71
367	1.525	627.79	1215.9	293.01	521.02	1455.2	469.94	507.01	1488.8	136.74	531.49	1775.3	319	610.73	1010	399.93	601.84	1012.8	167.21	406.6	1027.8	335.86	407.46	1034.9	242.69	557.44	902.31	474.1	501.08	907.4	105.48	513.51	1073.7	452.09	505.94	1093.1	143.62	391.47	990.94	286.6	609.75	705.5	466.86	714.88	640.41	431.82	646.24	624.36	447.62	683.07	728.47	450.43	723.03	542.74	426.97	691.02	529.74	302.36	718.27	351.03	441	796.01	310.27	419.59	741.98	277.45	434.97	772.42	384.22	426.89	797.76	113.55	402.31	821.22	140.27	323.81	768.48	61.96	352.89	790.53	42.755	325.88	782.1	40.922	387.36	NaN	NaN	NaN	959.56	115.34	320.44	1010.9	156.92	366.94	454.95	715.26	119.33	518.54	610.67	152.35	452.38	624.05	142.96	522.59	696.46	125.9	443.33	515.39	169.07	442.79	519.32	294.36	343.15	348.93	172.97	390.58	251.27	201.45	324.7	279.07	192.26	403.24	324.61	182.48	311.2	105.09	217.84	332.45	108.93	303.12	253.06	78.947	265.87	265.19	42.941	295.37	260.16	52.665	231.4	436.47	38.976	196.53	454.63	37.713	312.84	519.79	52.699	264.23	449.57	1516	297.99	396.47	1234.7	304.82
368	1.5292	633.2	1214.9	293.11	526.48	1454.3	470.14	512.57	1488	136.97	536.75	1774.4	319.27	616.23	1009.1	400.02	607.14	1011.9	167.29	412.05	1026.8	336.11	412.84	1034	242.94	563.05	901.42	474.26	506.09	906.65	105.47	519.11	1072.8	452.25	511.22	1092.2	143.77	396.91	989.97	286.86	614.44	704.43	467.27	719.35	639	432.11	650.68	623.15	448.01	687.85	727.14	450.75	727.53	541.52	427.27	695.22	528.33	302.62	725.66	349.75	440.99	804.13	310.32	419.42	750.63	276.54	434.76	779.25	383.88	426.93	809.59	113.5	401.69	832.49	140.9	323.22	781.32	61.381	352.16	803.71	42.689	325.04	795.36	40.514	386.53	NaN	NaN	NaN	971.45	118.59	319.69	1022	161.01	366.3	459.1	714.89	119.37	522.19	609.98	152.41	456.11	623.66	143.1	526.62	695.73	125.9	446.42	515.02	169.24	446.1	518.97	294.55	345.13	349.23	173.19	391.92	251.24	201.62	326.23	279.46	192.52	405.07	324.48	182.68	311.6	105.48	218.1	332.88	109.23	303.33	253.24	79.267	266.17	265.32	43.211	295.6	260.26	53.04	231.62	436.5	38.962	196.56	454.75	37.61	312.85	519.94	52.404	264.21	455	1515.1	298.2	401.89	1233.7	304.94
369	1.5333	638.63	1213.9	293.22	531.94	1453.3	470.35	518.16	1487.1	137.2	542	1773.4	319.56	621.75	1008.3	400.11	612.47	1010.9	167.37	417.51	1025.8	336.36	418.24	1033	243.2	568.68	900.52	474.41	511.12	905.88	105.47	524.73	1071.9	452.41	516.53	1091.3	143.92	402.37	988.99	287.11	619.24	703.4	467.65	723.92	637.63	432.39	655.23	621.99	448.37	692.73	725.85	451.07	732.09	540.31	427.56	699.49	526.96	302.86	732.88	348.52	440.96	812.03	310.33	419.24	759.03	275.67	434.53	785.95	383.52	426.98	820.95	113.48	401.07	843.34	141.53	322.64	793.64	60.89	351.42	816.36	42.695	324.19	808.05	40.183	385.68	NaN	NaN	NaN	982.83	121.68	318.99	1032.7	164.84	365.74	463.31	714.49	119.43	525.91	609.27	152.48	459.89	623.26	143.26	530.69	694.99	125.92	449.6	514.64	169.44	449.51	518.59	294.77	347.19	349.54	173.44	393.31	251.22	201.8	327.82	279.88	192.79	406.98	324.36	182.91	312.01	105.91	218.36	333.33	109.56	303.54	253.44	79.643	266.48	265.46	43.534	295.84	260.36	53.464	231.85	436.54	38.947	196.6	454.88	37.511	312.85	520.11	52.094	264.19	460.45	1514.2	298.43	407.32	1232.8	305.06
370	1.5375	644.09	1212.9	293.34	537.41	1452.3	470.57	523.76	1486.3	137.45	547.25	1772.5	319.86	627.28	1007.4	400.2	617.81	1010	167.44	422.99	1024.8	336.62	423.66	1032.1	243.46	574.34	899.62	474.56	516.15	905.11	105.48	530.38	1071	452.57	521.86	1090.3	144.08	407.84	988.01	287.38	624.15	702.4	468.02	728.61	636.32	432.64	659.89	620.87	448.71	697.7	724.62	451.38	736.72	539.14	427.83	703.86	525.64	303.1	739.95	347.33	440.91	819.71	310.3	419.07	767.17	274.84	434.28	792.53	383.14	427.02	831.82	113.47	400.44	853.74	142.14	322.06	805.42	60.467	350.66	828.43	42.747	323.33	820.16	39.907	384.83	NaN	NaN	NaN	993.7	124.56	318.34	1042.8	168.4	365.24	467.55	714.09	119.52	529.68	608.56	152.57	463.73	622.84	143.45	534.8	694.25	125.95	452.86	514.24	169.66	453.04	518.2	295	349.33	349.87	173.7	394.76	251.21	201.99	329.47	280.32	193.07	408.95	324.25	183.14	312.44	106.39	218.61	333.81	109.93	303.76	253.65	80.081	266.78	265.61	43.917	296.07	260.47	53.943	232.09	436.58	38.93	196.64	455.01	37.417	312.86	520.28	51.77	264.17	465.91	1513.3	298.66	412.77	1231.9	305.18
371	1.5417	649.56	1211.9	293.48	542.88	1451.3	470.81	529.38	1485.4	137.7	552.5	1771.6	320.16	632.84	1006.5	400.29	623.18	1009	167.52	428.49	1023.8	336.89	429.09	1031.1	243.73	580.01	898.73	474.72	521.21	904.32	105.51	536.06	1070.1	452.74	527.21	1089.4	144.24	413.33	987.02	287.65	629.16	701.43	468.35	733.42	635.08	432.88	664.67	619.81	449.02	702.78	723.44	451.67	741.43	538	428.08	708.35	524.39	303.32	746.85	346.19	440.83	827.16	310.22	418.89	775.04	274.03	434.02	798.98	382.72	427.06	842.16	113.46	399.82	863.69	142.7	321.5	816.62	60.092	349.9	839.9	42.82	322.47	831.65	39.666	383.97	NaN	NaN	NaN	1004	127.2	317.74	1052.5	171.63	364.8	471.84	713.68	119.64	533.53	607.85	152.66	467.63	622.41	143.68	538.95	693.51	126	456.22	513.84	169.91	456.67	517.8	295.26	351.54	350.23	173.98	396.25	251.21	202.19	331.19	280.79	193.36	410.98	324.15	183.39	312.89	106.91	218.86	334.33	110.33	303.97	253.89	80.589	267.07	265.78	44.37	296.31	260.6	54.483	232.32	436.62	38.91	196.69	455.15	37.329	312.86	520.46	51.432	264.15	471.38	1512.4	298.9	418.24	1231	305.31
372	1.5458	655.06	1210.9	293.63	548.36	1450.3	471.06	535.01	1484.6	137.95	557.74	1770.6	320.48	638.42	1005.6	400.38	628.57	1008	167.59	434	1022.9	337.16	434.54	1030.1	244.01	585.71	897.84	474.87	526.28	903.53	105.56	541.77	1069.2	452.91	532.59	1088.4	144.41	418.83	986.04	287.93	634.29	700.51	468.65	738.35	633.89	433.09	669.57	618.79	449.3	707.96	722.33	451.94	746.23	536.91	428.31	712.95	523.21	303.52	753.59	345.1	440.72	834.38	310.09	418.71	782.65	273.25	433.74	805.32	382.27	427.09	851.98	113.42	399.2	873.16	143.19	320.94	827.23	59.747	349.14	850.75	42.891	321.62	842.51	39.44	383.12	NaN	NaN	NaN	1013.8	129.56	317.19	1061.7	174.51	364.42	476.18	713.25	119.81	537.45	607.14	152.77	471.6	621.98	143.93	543.15	692.78	126.06	459.67	513.44	170.18	460.43	517.37	295.53	353.83	350.6	174.27	397.8	251.24	202.39	332.97	281.29	193.66	413.1	324.05	183.64	313.37	107.49	219.09	334.87	110.78	304.17	254.15	81.174	267.36	265.95	44.899	296.54	260.74	55.089	232.55	436.67	38.888	196.74	455.3	37.251	312.86	520.65	51.08	264.13	476.87	1511.5	299.15	423.73	1230	305.44
